# xmcd
#
# Track frame offsets:
# 150
# 12770
# 26266
# 39051
# 53297
# 67032
# 81161
# 100253
# 114291
# 126960
# 141987
# 158017
# 171689
# 184844
# 196341
# 209008
# 222446
# 236496
# 248615
# 262968
# 275119
# 287416
# 301621
#
# Disc length: 4232 seconds
#
#
# Revision: 0
# Processed by: cddbd v1.5.1PL0 Copyright (c) Steve Scherf et al.
# Submitted via: FreeRIP 2.942 
#
DISCID=3e108617
DTITLE=BAILAO LEGAL - V2 - BAILAO LEGAL - V2
DYEAR=2005
DGENRE=Country
TTITLE0=PARADA DURA
TTITLE1=MULHER CHORONA
TTITLE2=PRA LA QUE EU VOU
TTITLE3=ACONTECEU COMIGO
TTITLE4=ALO MULHERADA
TTITLE5=TENDEL
TTITLE6=PRA TE ESQUECER
TTITLE7=APAZIGUAR
TTITLE8=QUARENTONA
TTITLE9=ESCORPIÃO
TTITLE10=O TREM BÃO - A LUA
TTITLE11=UMA ONÇA DENTRO DE CASA
TTITLE12=TONTAO
TTITLE13=LAGRIMAS DE SANGUE
TTITLE14=ZOIÃO
TTITLE15=TREME TREME
TTITLE16=PEAO AZARADO
TTITLE17=ASSIM QUE EU SOU
TTITLE18=MEXE QUE MEXE
TTITLE19=BRINQUINHO NA ORELHA
TTITLE20=MARIA
TTITLE21=MACHUCA EU
TTITLE22=BRAQUINHO
EXTD=VÁRIAS
EXTT0=OUTRO PRETO E BOIADERO
EXTT1=TEODORO E SAMPAIO
EXTT2=BRUNO E MARRONE
EXTT3=DELLEY E DORIVAN
EXTT4=TEODORO E SAMPAIO
EXTT5=RIO NEGRO E SOLIMOES
EXTT6=BANDA CALYPSO
EXTT7=BRUNO E MARRONE
EXTT8=MAURICIO E MARCELO
EXTT9=LEONARDO
EXTT10=ZEZE E LULU
EXTT11=OUTRO PRETO E BOIADERO
EXTT12=TEODORO E SAMPAIO
EXTT13=BANDA CALYPSO
EXTT14=STILLO POP SOM
EXTT15=TRIO CHAPAHALLS
EXTT16=TEODORO E SAMPAIO
EXTT17=ZE ANTONIO E DIVANEY
EXTT18=ZEZE E LULU
EXTT19=TEODORO E SAMPAIO
EXTT20=BANDA CALYPSO
EXTT21=JOAO MARCIO E FABIANO
EXTT22=TRADIÇÃO
PLAYORDER=
